<?xml version="1.0" encoding="UTF-8"?>
<svg xmlns="http://www.w3.org/2000/svg" viewBox="0 0 589.54 489.77">
  <defs>
    <style>
      .cls-1 {
        fill: #fff;
      }
    </style>
  </defs>
  <g id="LEAF">
    <g>
      <path class="cls-1" d="M482.16,382.81l-1.78,1.78c-2.71-1.89-5.29.27-7.75-.03-3.3-.39-12.12-7.71-17.09-7.01,5.76-7.69,13.97,1.45,21.39.01,2.52-.49,2.38-2,2.15-4.33-3.84-.38-6.38-.73-6.07-5.28l3.92,2.6c2.93-1.87.11-4.56.87-6.96l3.92,5.23c.95-6.9-2.6-4.9-6.05-6.6-2.3-1.14-10.88-7.05-13.08-5.54l-1.38,5.16-4.83-6.1c-5.89,4.7-12.64-2.95-17.45,1.73l1.74.87c-4.68,3.67-10.81,2.8-15.7.01-.48,2.21,3.02,4.35.42,6.11l-2.19-5.23c-.6,1.1-4.1,3.42-4.23,3.66-.25.45,1.25,4.35-.99,5.94,5.3-2.36,10.13,3.69,10.49-4.35l1.73,1.73-.86-5.23c1.87,1.45,4.62.84,6.38,1.83,1.21.68,14.03,14.39,14.39,15.37.43,1.15.78,3.42-1.12,2.87l-7-6.08c-2.72,1.84,1.63,5.39,3.32,6.27,3.06,1.59,6.82.97,8.91,4.19l-.39-4.75,2.12-1.35,4.83,6.97,1.73-2.61h1.73c1.24,5.99,6.81,1.77,9.04,1.93,2.79.21,7.97,4.77,13.68,5.05-1.33-2.64-2.05-5.83-4.82-7.85Z"/>
      <path class="cls-1" d="M584.74,359.04c-9.31-12.6-15,12.16-21.96-4.01l-2.76-.12c-20.37,6.58-40.92,13.39-62.56,13.92l-.45,2.61-6.52-3.49c-.53,1.85,1.5,6.82-1.75,6.11-2.44-6.57,2.06-17.68-5.24-20.96,1.23,4.91,3.55,8.71,1.13,13.78-.55,1.14-2.04,1.04-2.05,1.57-.01.56,2.77,10.02,3.16,10.79,1.33,2.63,5.78,5.45,6.5,8.79l2.6-7.45c1.27-1.26,6.81.99,7.04,1.93l-2.25,8.15c-4.24-3.12-7.3.26-12.64,0,1.3,2.58,3.81,10.17,6.56,11.34,1.95.83,1.01-1.23,1.06-1.9.17-2.28.46-4.73-.64-6.81,5.99-.54,8.61,7.61,14.84,4.35l-1.75-5.22c.78-.81,17.32,1.74,15.73-4.37,4.08.18,6.34,4.23,9.59,5.69,13,5.83,26.57-2.13,39.66-.37,7.36.99,15.79,5.2,8.38,12.59,2.34,1.22,5.5-5.24,6.53-7.44,6.37-13.59-.76-25.42-2.2-39.46Z"/>
      <path class="cls-1" d="M359.49,381.94c-6.15,2.42-11.24.45-17.46,0l3.49,3.47c-7.51,2.71-20.7,9.83-3.49,9.61l-.86-4.36c4.2,3.62,6.75-.67,11.34,0l-2.61,6.1,6.51-2.61,3.08,4.36c3.25-6.43-4.98-10.38,0-16.58Z"/>
      <path class="cls-1" d="M248.22,355.95c-.3,2.02.49,2.58,1.22,2.77-.58-2.78-1.01-4.15-1.22-2.77Z"/>
      <path class="cls-1" d="M250.49,359c-.04-.18-.53-.13-1.06-.28.16.79.34,1.69.53,2.67.53-.41.78-1.13.53-2.4Z"/>
      <path class="cls-1" d="M398.58,355.84c-2.43-.48-20.94.65-44.3,2.32-1.5.11-1.82-2.08-.35-2.4h0c3.94-.86-12.72-2.83-16.65-3.69l-3.23-.71,7.33,1.93c1.38-1.47,1.83-2.74.34-4.4-2.53-2.83-15.47-3.94-19.12-7.36l3.95,10.07c-4.78,1.24-.81,6.4-5.56,7.92-.48-.69-5.18.9-5.66.21,2.09-2.56,5.22-4.61,1.58-8.09-1.84-1.77-8.75-3.08-7.52.83l-1.51.33c-2.39-3.89.12,1.18-3.1-4.32,3.89.06-3.93,1.51-4.46-1.7-3.21.45.83-3.74,0,0,1.11,5.46,5.16,9.13,10.81,7.04l-.56,2.08c3.92.54-15.4,1.02-14.7,4.19-9.73.75-7.04,3.04-15.48,3.7-.01-.06-.02-.12-.04-.19-2.02-5.58,3.37-9.94,2.64-15.69-.17-1.31-1.88-1.73-2.64-.65l-1.67,2.36c-.39.55-1.11.76-1.74.51l-4.14-1.66c-1.21-.48-2.4.73-1.89,1.93l1.16,2.72c.44,1.04-.4,2.16-1.52,2.03-3.71-.43-6.46-2.84-9.86-1.6-1.06.39-2.13-.56-1.91-1.66l.14-.71c.18-.91-.53-1.76-1.45-1.75-18.32.21-5.3,7.9,4.27,11.74.98.39,1.23,1.65.49,2.39-.49.49-.53,1.14-.29,1.66-5.3.41-9.51.73-12.25.93.53-.85.75-2.32.28-4.77-1.54,1.18-5.47-.27-6.83,1.17,1.9-5.43-3.48-8.49-4.25-13.41-1.54.41-1.15,3.93-.92,5.04.68,3.25,3.11,5.38,3.44,8.69-.73,1.44-13.92-8.08-16.08-5.49l5.93,3.37-1.26,1.69-8.59,5.69-10.79-9.36-44.76-9.45,1.77,4.3c-5.87,3.84-13.55-1.63-20.06,1.31l1.73,6.08-6.95,2.21c1.56,2.11,4.09,1.36,6.15.92,5.93-1.27,12.07-6.22,17.85-8.34l.44,4.36,3.93-3.54,9.16,2.67.43-4.36c3.49,1.34,2.99,5.43,3.07,8.72l8.72-3.48-1.07,7.65c-5.84,1.89-7.94,5.06-12.88-.67l.06,8.15c-3.08,2.64-6.59-1.41-11.08-1.95-6.67-.81-13.84,1.45-19.98-1.85-.63.4,1.86,5.45-.87,4.37l-4.36-4.4c-3.53.49-4.53,8.47-9.18,6.16,1.33,6.94,12.85,3.01,8.71,12.21-3.56.47-4.89-3.56-7.53-5.16-3.58.94-5.12,5.19-2.99,8.28l7.04.38v4.37s-6.11-1.74-6.11-1.74c.87,10.31,10.93-.58,11.18,7.6.15,4.85-8.84-.3-9.43.26l1.73,9.6c-2.94-2.96-3.74-.59-6.97,0l.02-7.41-10.51-1.32c.06-4.77,3.3-11.12,8.73-11.36-.37-4.59-5.38-3.46-8.73-3.48l2.58,3.88c-3.29,1.92-4.75,9.73-7.74,10.58-10.11,2.88-3.85-5.71-6.2-10.97l-4.3,3.14,1.68,5.58-12.22-1.75c1.6-2.94,4.49-4.69,7.86-4.36-.06-.92-.19-6.99-2.18-6.1l-14.86,15.71-.88-4.37c-11.95,4.13-24.93,3.29-37.28,5.51-3.6.65-13.89,2.05-14.68,6.28-.51,2.74,1.84.45,2.2.45h17.9c.32,1.88-.83,2.08-2.19,2.61-4.16,1.62-21.38,3.23-22.31,3.88-1.1.76-.82,3.75-1.64,5.13-.43.71-1.86.88-2.5,2.05-.69,1.27-.52,3.06-1.03,4.03-2.1,4.01-16.26.98-20.09-.23,6.84,8.58,18.18,15.14,28.79,17.92,1.79.47,10.58,2.26,11.8,2.15,3.65-.33,4.11-6.26,1.78-6.68l-3.55-.26c-1.25-1.81.31-4.89,1.8-6.15,4.04,6.18,2.88-1.34,3.1-1.64.23-.3,2.08-.47,2.87-1.09,2.81-2.19,5.23-4.93,5.83-8.63,18.74,9.8,39.13-12.24,56.31,1.66l5.24-6.89,2.63,4.35.41-1.73h11.37s0-3.51,0-3.51c5.98,1.12,9.87-3.26,14.83,2.62l3.13-7.01c12.22,5.38,25.06-4.99,36.17,4.4v-6.11c3.7-.92.2,4.64,2.62,5.23.23-1.83,1.18-3.65,2.58-4.85,6.58-5.67,30.31.25,39.03,1.24,6.49.74,15.33,2.86,20.35-2.06l-1.7-2.17c19.25-2.77,38.97-3.91,57.63-9.62-3.85-3.66-2.87-9.21-4.38-13.96-4.6-.4.67,5.31,0,6.11l-3.9-2.62-2.66,5.26-3.1-1.46,1.81-6.41c-3.22,1.13-5.81,3.18-9.13,4.4-2.1.77-13.36,3.66-14.45,2.59v-6.99s-4.75,1.79-4.75,1.79c-2.66-.49-3.51-2.76-3.07-5.24,6.32,1.39,9.43-12.51,13.48-11.39,2.04.56.41,5.45,2.62,4.35,3.17-3.65,3.82-10.01,10.05-8.72l-.53,4.3.96,1.77c3.54-1.57,19.17-.57,21.04-3.41.5-.76-2.74-8.7,3.86-7.9-.93,2.3-1.55,7.62,1.46,8.61,5.16,1.7,9.69-6.98,11.92-6.75,3.77,1.99,7.45,3.22,4.08,7.73,4.64,1.02,8.93-5.03,12.74-5.24,2.95-.17,3.03,2.72,5.59,2.63-.15-2.43.33-6.42,2.61-7.85v5.23c3.24.91,1.14-4.93,3.81-4.25,3.84.97,8.68,13.12,11.93,6.45-6.07-2.11-.63-12.64,4.33-7.87l-1.72,3.05c3.2-.64,5.68-2.21,9.22-1.83,1.68.18,1.24,1.87,1.72,1.88,1.68.04,2.91-2.16,4.78-1.8v2.62h2.62v-2.62c2.74.4,6.38,1.56,9.06,1.47,2.36-.08,7.01-.41,9.61-.62,8.92-.72-3.86-9.13-6.03-9.55ZM187.14,388.96l.71,2.04c-4.44.94-5.94,3.63-6.12,7.64l-29.08-.89-.42-1.78,2.89-7.17-7.17,2.45c-1.48-1.37-2.02-2.6-.66-4.37,2.32-3,15.15-5.05,18.54-8.72l-3.22,10.33c4.51.83,5.38,9.31,12.97,8.83-1.88-3.29-7.41-5-3.35-9.5,1.71-1.9,8.51-3.7,7.56.28l1.53.22c2.11-4.05,8.94.54,11.76-5.18-3.87.34-3.96-2.49-3.67-5.73,3.24.21,6.89.04,7.99,3.71-.71,5.53-4.49,9.48-10.27,7.8Z"/>
      <path class="cls-1" d="M309.72,385.43c.49,1.72,3.18,1.31,4.41,2.99,1.23,1.68,2.84,7.77,4.33,10.09,1.09.12,1.19.45,1.73-.61,1.66-3.24,1.78-4.02,6.33-1.94.69.32.74,1.72,1.07,1.69.44-.62,1.61-.68,1.97-1.12,1.3-1.61,1.47-6.02,1.08-8.04-1.3-6.8-15.86-3.39-20.93-3.07Z"/>
      <path class="cls-1" d="M428.89,380.19c-2.05-.43-3.14,3.74-3.05,5.23l-3.78-4.27c-1.98,2.73-10.31,2.94-10.2,6.46l1.77.87c-3.74,4.85-7.14-7.2-8.72.9l8.26,3.91,1.34-4.37c2.43-.84,1.47,1.49,1.77,1.71,1.74,1.3,1.56-1.39,2.34-1.68,1.54-.55,4.87-.47,6.72-.89l6.63,3.48c-1.32-4.04.89-8.55-3.07-11.34Z"/>
      <path class="cls-1" d="M114.21,359.82c1.58,1.06,4.67,7.82,6.74,6.35l.62-6.32-4.83-1.54c.17-1.58-.31-3.59.19-5.03.63-1.83,3.18-.95,2.99-2.71-5.25-.72-4.61,3.87-6.21,6.59-.52.88-2.03.61-2.1.7-1.85,2.72,1.63,1.3,2.6,1.95Z"/>
      <path class="cls-1" d="M416.26,357.79c-.19.89-2.6,0-1.75,2.31l6.62-2.57-1.51-6.91-10.36,5.99c-.37.34,7.33-.31,7,1.18Z"/>
      <path class="cls-1" d="M111.43,392.31l.08-4.26-6.1,2.6c2.72.48,3.17,3.44,6.02,1.66Z"/>
    </g>
    <path class="cls-1" d="M315.18,400.92l-8.76,2.35c-3.17-4.95,2.57-7.18,2.57-7.18-1.59-3.85-1.21-7.1-1.21-7.1.42-2.3,3.25,1.13,3.25,1.13.08,3.7,1.28,5.61,1.28,5.61-.26,2.82,2.87,5.19,2.87,5.19Z"/>
  </g>
  <g id="KOALA">
    <path class="cls-1" d="M388.84,142.83c-2.36-3.22-2.1-5.9-.74-9.65,3.57-11.63-16.31-30.09-31.9-4.19,4.08-6.77-39.71-29.67-64.96-27.86-6.11.44-11.25,4.88-14.79,9.89-7.28,10.3-10.2,27.06-1.8,48.72-8.42,8.12,4.72,20.84,11.48,35.18,1.3,2.26,4.37,2.75,6.32,1.01,5.89-5.55,4.08-10.93,4.45-19.74,0,0,19.13-3.34,20.91-16.02,0,0,4.77,25.73,24.94,43.52,1.56,1.38,3.43,2.37,5.43,2.93,4.41,1.24,11.76,2.39,11.81-3.7.02-2.98-1.72-5.72-3.89-7.76-3.79-3.58-11.22-11.45-14.73-21.13-.77-2.12-.77-4.5.34-6.47.83-1.49,2.13-2.22,3.96.8,3.39,5.38,8.78,12.01,12.48,11.23,14.16-2.97,11.1,5.2,13.94,8.16,5.17,5.39,25.14.89,18.09-20.24,0,0,6.67-13.79-1.33-24.69Z"/>
  </g>
  <g id="TYPE">
    <g>
      <path class="cls-1" d="M156.96,138.29l-.62,3.19c-.29-.03-.65-.13-1.09-.18l-3.71-7.28c-1.74,1.06.17,4.42,2.12,7.28-2.02-.05-4.17.03-5.53.12-1.22-1.27-1.88-1.41-2.21.44-1.14-1.05-2.47-1.75-3.39-2.71s-.46-3.22-2.14-4.97c-5.04-5.25-12.79-23.31-15.95-33.72-1.31.96-2.75,6.3-3.44,9.41-5.72-.62-14.11-5.39-11.55-9.98,3.47-6.24,4.66-14.71,8.2-21.16,1.57-1.51,4.04-2.35,5.17-2.82,2.53,1.54,5.45,3.63,8.48,6.37,10.82,22.91,11.22,32.9,25.65,56.01Z"/>
      <path class="cls-1" d="M190.31,65.56l3.48-12.26.89.3,5.76-12.77-1.02-.36c2.56-5.31,7.16-11.86,9.97-14.96l1.2.51-.1,1.52c2.47.51,4.75.86,6.28,1.83l1.7,3.46-1.14,4.12h-1.26c-7.96,13.24-14.66,26.47-19.37,40.32-4.09,12.32-7.94,27.47-12.41,40.95-3.46-2.96-2.81-8.31-1.58-15.91.33-1.27.27-2.46-.36-2.89l-1.45,6.73-.7-.15c.52-3.45,1.01-7.62,2.18-9.54-.42-4.95,2.73-17.66,5.44-25.25-2.55-.47-4.53-.84-6.13-1.53l-.94.46-2.94-2.12v-1.96c-2.49-5.04-2.72-13.03-3.11-19.22l-3.37,3.25c-1.6-.69-3.34-1.43-4.21-3.21-1.07-2.18-.52-4.29,1.07-5.56,3.52-2.71,6.56-7.27,8.92-9.78.77-.38,2.21-.23,3.09-.17l4.2,4.69c2,8.59.36,19.22,4.42,32.44.58-1.39,1.14-2.4,1.51-2.95ZM238.81,77.71l-1.12,2.88-1.7-.02c-1.62,1.65-3.4,3.39-5.19,5.13-1.28-1.09-2.3.27-2.49,2.45-4.38,3.99-8.94,7.58-12.77,9.46l-5.95-2.23c.44-.83-.11-2.16-1.52-2.45.25-7.24,6.17-19.47,9.17-26.47-1.74-.74-6.04,3.82-8.46,6.85-2.53-.85-5.27-2.57-6.49-5.04l.1-3.24c3.62-3.37,11.13-9.15,15.37-11.48l.04.72,3.24-.49.26-.98c1.98.38,4.01,1.71,4.88,3.49.83,1.68,1.32,4.63,1.55,7.46l-2.71,6.73-1.12-.56c-1.07,2.98-3.37,8.4-4.54,12.05l13.58-9.74,8.94-1.57.38,2.27,3.51-2.95.77,1.34c-1.9,4.74-4.3,5.43-7.74,6.38Z"/>
      <path class="cls-1" d="M277.35,20.07c1.19-5.99,3.52-14.76,5.69-19.64l1.7-.18c3.77-.39,5.46,3.09,6.19,4.57l-1.32.14c.14,1.31.79,3.02,1.45,2.95,2.64-.27,4.52-3.24,7.42-4.75,1.72-.84,4.49-1.68,5.44-1.78,2.07-.21,5.1,6.01,6.25,8.88-.93.21-1.61,1.05-.74,2.07-1.14,2.78-2.08,7.52-3.89,7.49-1.24.02-3.93,4.39-4.98,4.39-1.81-.03-2.8,2.39-4.5,4.34l-.72-.48c-.95.98-2.94,2.85-3.66,4.25l.41.29c2.99-.53,7.27-1.53,10.67-1.88,4.62-.48,8.61,2.21,11.79,4.43,1.69,2.48,4.09,8.22,5.39,11.63-.61.51-1.24.02-1.86.41-1.08,2.44-8.52,10.63-8.99,10.68-2.08.1-4.46,1.12-6.41,2.54l.55,1.6c-1.93,2.53-5.33,3.76-6.81,2.36-.41.6-.57,1.83-.76,2.74-9.43,7.4-16.57,10.24-15.28,12.54-.59.73-1.23,1.01-1.89,1.08-2.07.21-4.02-2.91-6.79-3.06.06-1.22-.07-2.54-1.13-1.77.12-1.56-.41-3.94-1.04-5.43,1.51-1.04,3.21-2.1,4.71-3.26-1.75-.37-3.09-2.23-4.48-2.75l.68-1.73c-1.03-.78-1.4-1.52-1.87-2.46l6.52-30.91c-1.6-.72-2.05-2.34-2.07-4.33l4.34-4.99ZM277.84,61.66l.71.37.63-1.28c-.6-.27-.93.21-1.33.91ZM283.07,43.18c-1.04.11-1.15.89-1.62.94l1.03.78c-.37,1.03-.92,2.2-1.58,2.27,1.1,1.44.62,3.26.09,5.53-.67.85-1.65,1.5-1.93,2.53,1.23-.13.92.57.58,1.05-.85.97-1.35,1.69-.1,3.67l1.36-2.47.26,3.41-.66.07c-.13.57-.25,1.24-.17,2.01,3.92-2.62,7.17-4.4,8.22-3.4.32-1.47,1.92-2.63,3.86-4.16,1.15,1.88,1.3-.36,2.24-.45.75-.08,1.82.14,2.01-1.76,3.83-2.61,8.08-5.71,11.09-11.56-8.77-2.86-11.91,1.78-19.64,2.58-1.89.19-3.93-1.15-5.06-1.03ZM279.32,50.21c.07.66-.12,1.56-.46,2.04l.46.73c.67-.85,1.13-2,1.04-2.88l-1.04.11ZM281.41,55.65c-.31-.19-.42-.4-.28-.86,0-.89.9-2.31,1.41-2.92l-1.13,3.77ZM282.63,50.87c-.49-.17.04-3.33.55-4.82l.62.49-1.17,4.33ZM284.29,71.52c.43.51.73.59,1.01.56.19-.02.45-.27.7-.63l-1.71.07ZM286.48,69.74c.06.55.71,1.37,1.75,1.26,1.04-.11,1.08-1.55.61-1.5-.9.54-1.87.3-2.36.24ZM298.64,38.91v.89c.96.12,1.89-.08,1.92-.75l-1.92-.13ZM302.18,61.25c-.86-.02-2.22.67-2.64,1.16.51.28.99.34,1.46.29.47-.05.9-.54,1.18-1.45ZM304.12,61.61c-.11-1.1.48-1.82,1.61-1.94.38-.04.67.04.98.23l-2.59,1.71ZM308.33,56.19l-1.45.7c-.02.78,1.38.41,1.74.26l-.29-.97ZM314.88,49.53l1.61-1.94c-.55-.72-1.75.62-2.36,1.13l.75.81Z"/>
      <path class="cls-1" d="M377.3,20.31c-9.07,3.55-17.86,2.91-26.45,4.73-1.25,1.86-2.85,4.23-4.78,7.01,3.82-.02,12.04-2.89,14.78-2.58,2.73.3,3.46,1.49,5,5.65-.51,1.16-.16,2.31.72,2.96l-.92,2.34c-5.87.46-20.19,1.54-25.17,3.44-2.58.94-6.07,12.74-6.45,15.25,2.64,2.84,7.19,2.23,10.01,1.77l.44,1.16c.66.07,1.58-.49,1.65-1.15,1.44-.06,1.62,2.62,2.99,2.32,6.34-1.3,13.91-3.35,18.81-4.58.29-.08.68-.15.74.19.13.57-1.37,1.18-2.17,1.53l-6.71,2.03c.52.5,1.47,1.38,2.08,1.89.27.14.06.34-.24.42-4.92,1.34-10.96,2.56-16.4,3.51,1.33.92,3.4,1.15,5.25.8,3.9-.79,9.31-2.3,14.13-3.65.29-.08.99-.33.4.71-.69,1.03-1.52,1.72-2.9,2.12-6.42,2.06-14.7,4.48-20.44,3.84-11.02-1.21-18.2-7.88-16.06-23.83,1.08-8.08,7.92-17.42,16.64-33.41-.17-2.79.21-5.41,2.23-8.18,4.64,1.18,8.3-6.96,11.59-6.59,1.79.2,6.6,2.39,7.78,2.96-.17,2.42-.92,4.89-2.56,7.7,1.55.61,6.01,1.66,8.09,1.89l.62,2.17c.47.05,1.39-.51,2.43-.4,1.04.11,3.18,1.46,4.47,1.82.19.02.35.26.14.46-4.2,3.53-6.57.83-6.28,4.19,2.97-1,5.41-1.51,8.2-2.64.4-.18,1.05-.88,1.07-.21.07,1.12-1.7,1.59-2.74,2.36ZM333.25,54.14c-.59,1.93-.84,3.34-.16,4.08l.8-2.9-.63-1.18ZM335.45,48.06l-1.48,3.94.55,1.06,1.88-5h-.95ZM335.72,47.31h.09c.66-.8,1.51-1.6,2.01-2.65-1.21-.24-1.66.37-1.97,1.45l-.13,1.21ZM342.84,32.03l1.25-.08,1.22-2.42c-.66-.07-2.05,1.33-2.47,2.5ZM347.98,25.17l-1.94,2.89,1.26-.19,1.94-2.89-1.26.19ZM356.6,59.37c-2.89,2.01-6.36,3.18-7.26.97,4.45-.62,8.97-1.78,12.63-3.04.4-.18.46.16.23.47-1.3,1.41-3.83,1.91-5.61,1.6ZM370.33,16.1l.14,1.35,1.79-.69c-.03-.56-1.34-.81-1.93-.66Z"/>
      <path class="cls-1" d="M416.68,64.86c-1.3,1.54-2.54,6.24-5.12,7.71.99,1.25-.59,3.63-2.17,4.5.03,1.75,0,3.02-2.84,5.33-.23.39.84.16,1.09.01-1.35,3.5-2.99,6.09-4.92,8.94-2.79-.91-4.28-4.88-5.93-4.72.78-2.06.78-2.99-.48-3.4l.57-1.44c.45.15.91-.05,1.24-.75-.45-.15-.71-.58-.47-1.31.97-2.35,3.04-5.03,4.61-8,.63.21.18,1.57-.42,3.11.63.21,3.03-3.76,4-6.11l-.91-.88c-.64,1.65-1.39,3.95-2.3,3.07.75-1.38,2.22-4.95,2.9-6.12l.81,2.7c.32-1.29.87-1.45,1.21-3.08-5.06-1.89-21.44,2.14-26.56,4.06l-.9,1.21-.05,1.37c-2.73,3.16-5.49,7.01-7.65,8.74l-4.75-4.69c.79-3.33-2.63-5.96-.75-8.36l-1.44-.47c7.16-15.16,27.75-27.2,40.54-37.62,6.36-5.11,12.03-8.12,16.61-10.21.84-.42,3.02,1.45,3.85-.48,1.03.8,3.14,2.88,4.08,4.58l-1.83.1c-.67,1.75,2.23.5,2.54,1.06,2.23,4.44-1.51,9.48-.79,13.07-.08.55-3.21,9.5-4.87,10,.11.27.2.3.4.6-1.29,2.13-3.01,4.93-4.15,7.8-.5,1.23,1.75,5.91-.02,10.43-1.69-.32-3.54-.46-5.14-.75ZM385.39,63.89c-.69.59-1.01.95-1.61,1.56l8.22-1.95c-.83-1.43-4.55-.1-6.61.39ZM390.71,60.76c-.82.08-1.4,0-2.13.11l-1.66,1.43c.43-.09,2.77-.25,3.79-1.54ZM397.06,62.38l.03-.1c-2.02-.54-2.89-.6-3.8.96.98-.26,2.54-.44,3.77-.85ZM424.41,32.15c-1.75-.46-7.81,4.05-13.63,8.75l-.28-.67c.54-.75,1.02-1.29.8-1.83-2.06,1.41-3,2.15-2.84,4.4-2.04,1.65-3.91,3.12-5.63,4.42-2.41,1.88-6.32,5.58-9.52,8.36,2.21-.67,4.28-2.42,8.47-3.02,3.67-.54,5.69-.34,9.28-.32,1.16-2.63,2.71-4.33,3.55-5.68l1.02,2.07c2.14-2.89,6.18-10.96,8.71-15.35l.07-1.14ZM401.52,75.55l-.81,1.24.54.18.91-1.56-.64.14ZM412.57,51.23c-.77,1.14-.14,1.35.52,1.45l.47-1.12-.99-.32ZM413.93,49.82l-.33-.22-.74,1.03.81.27.25-1.08ZM420.76,37.79l-.81-.27,1.65-2.59.95-.15-1.78,3.01Z"/>
      <path class="cls-1" d="M474.73,74.12c-5.02.46-4.46,2.47-10.3,2.83-.03-2.72-3.35-2.52-7.38-1.33,2.81,12.85,3.33,31.38,11.22,36.1,3.82,2.28,8.68,3.39,10.81,3.89.72.82,1.35,2.73,1.43,4.07-1.83-.45-3.57-.85-5.52-1.11l.05.29c1.06.63,2.57,1.79,1.86,1.88-1.27.27-5.54.41-9.29-.16-.82-.11-.13.95.34,1.1,4.13.67,9.02-.13,12.73-.61.1.57.14,1.24.08,1.72-7.08,2.06-17.63,2.17-23.74-1.48-2.36-3.08-4.84-6.87-5.48-10.59-1.27-6.92-1.38-31.5-4.51-37.35-4.15,2.14-12.01,7.71-15.35,10.72-1.22.94-1.15,4.32-2.63,5.87-1.73,1.79-4.83,1.99-7.87,3-1.54-.92-2.76-3.7-2.22-6.08l1.1-4.61c2.86-.35-.34-1.1.74-2.9,2.94-4.92,36.63-30.99,52.91-40.13,6.67,3.99.52,9.29-.01,12.96,3.26.28,7.41.71,10.26,2.41,1.79,1.07,3.06,2.08,4.24,3.43l-1.47,1.17c.91,1.06,2.21,1.84,2.95.61l1.09,1.68c-.36.42-1.03.8-1.44.94.31.96,1.04,1.39,1.83.45.55,2.77.41,4.48-.89,6.66-.68,1.13-1.99,2.4-3.04,2.68-3.55.96-7.41,2.24-12.23,3.47l-.27-1.58ZM437.26,77.52l-5.35,3.6-.27,1.38,5.58-3.98.04-1ZM460.13,76.94l.02-1.14c1.35-.22,3.07.04,2.91,1.23l-2.93-.08ZM462.05,119.16c-.91-1.06-2.29-.6-.82,1.18,1.72.64,3.98,1.1,5.4,1.3l.06-.09c-.41-.24-.29-.81-.42-1.15l-4.23-1.24ZM483.63,56.46l2.32,2.03.8-.42c-.67-.91-2.33-1.65-3.12-1.61Z"/>
      <path class="cls-1" d="M538.53,97.44c1.83,3.05.68,6.79-2.38,9.67.05.65-.19,1.18-.56,1.58-1.57,1.7-6.03,1.76-9.27-.04.57-3.53,2.93-1.49,3.06-3.02-7.01-6.51-12.05-8.19-22.74-8.79l-1.12,1.21.67,5.13c.74,5.19,2.6,9.03,2.21,13.63l1.29.14c-.31,4.37-1.98,8.54-4.07,10.51l-6.41,6.07-.88-1.42c-5.01,1.36-11.74.53-17.79-1.18-1.18-3.05-2.73-3.74-4.69-1.5-4.68-1.64-8.34-3.69-9.59-4.85-.97-.9-1.44-3.74-1.38-7.15-2.18-3.23-1-5.74.69-6.87.45-2.29,1.1-4.24,1.92-5.13,1.87-2.02,4.18-2.13,6.19-2.07.13,2.23-.69,6.73.56,7.89,3.26,3.03,11.75,6.85,20.39,6.45l.75-.81c.06-3.55,1.97-8.39-.18-8.58.82-4.65,1.12-6.63-1.11-6.74-.07-1.87-.15-5.55,1.6-8.13,1.98-2.97,3.92-6.73,5.57-8.36,6.56-6.23,23.96-2.41,32.78,5.78,1.74,1.61,3.95,3.82,5.46,5.68l-.97.9ZM476.36,127.21l-3.55-1.05-.18.89,2.83,1.13.9-.97ZM516.27,96.77c-3.33-1.43-7.02-2.61-8.29-1.38l8.21,1.46.08-.08ZM528.61,110.63l3.01.24c-.9.97-1.18.86-2.91.91l-.1-1.15Z"/>
    </g>
    <g>
      <path class="cls-1" d="M107.74,459.25l-.6-.52c-5.1,3-10.65,7.05-12.97,5.55-.9,1.5-2.62,5.92-3,5.92s-.15-1.95-.98-.53c-.82,1.5-2.55,4.5-2.4,6.67,0,.45,1.2-.3,1.05.15l-3.38,9.82c-.23.75-.6,2.47-.67,3.45-.68,0-4.8-1.5-5.85-3-1.2-1.8-1.57-4.42-1.57-5.92,2.4-7.42,8.02-20.55,12.07-29.25-1.12-.83-2.25-1.88-2.85-2.62.52-.67.98-1.72,1.12-2.62l-1.88-.45c.52-.75,1.42-1.28,2.02-1.65v-1.2c7.12.45,6.38-8.32,9.22-8.32.75,0,1.12.15,1.65.3,1.12.38,2.1.97,3.38,1.12.6,1.5,1.35,2.85,1.65,4.5,2.32.08,4.65.15,7.35.6,3.98.6,6.38,2.1,6.38,6.38,0,5.25-3.98,7.57-9.75,11.62ZM89.36,475.37c-.3,0-.75.45-.98.22.23-1.05,1.05-2.92,1.5-3.07,1.05-.45-.15,1.87-.52,2.85ZM100.54,460.15h-.97c-.98,0-1.8,1.05-1.95,2.1,1.8-.52,3.9-1.57,5.48-2.47-.9-.97-1.35.38-2.55.38ZM102.79,458.95c.6,0,.68.75,1.27.38l1.27-.75c-.38-.38-1.95-.52-2.55.38ZM106.01,457.45c-.3.23.3.75,1.05.23,1.5-.9,4.2-2.17,3.6-3l-4.65,2.77ZM112.01,453.7c-.38.22-.75.3-.9.75-.23.6,1.65.15,1.65-.67,0-.22-.38-.3-.75-.07Z"/>
      <path class="cls-1" d="M150.49,454.75c-3.22,2.02-2.02,3-5.85,5.25-1.12-1.57-3.3-.3-5.55,1.8,7.12,6.52,15,17.17,22.27,17.17,3.52,0,7.27-1.05,8.92-1.5.82.23,2.02,1.12,2.62,1.88-1.43.38-2.77.75-4.2,1.28l.15.15c.98,0,2.48.15,2.03.45-.75.6-3.6,2.17-6.38,3.15-.6.23.3.6.67.53,3.08-1.05,6.08-3.22,8.4-4.8.3.3.6.67.75.97-3.98,3.67-11.1,7.42-16.72,7.42-2.85-.97-6.07-2.32-8.02-4.27-3.67-3.6-13.72-17.92-18.22-20.25-1.95,2.7-5.02,8.7-6.07,11.62-.45.98.97,2.92.6,4.35-.45,1.65-2.47,2.85-4.12,4.5-1.43,0-3.38-1.2-3.98-2.77l-1.12-3.08c1.8-1.2-.67-.52-.67-1.95,0-3.9,12.3-30.9,19.65-41.92,6.15,0,4.12,5.25,5.25,7.57,2.32-.97,5.32-2.17,7.95-2.17,1.65,0,2.92.15,4.27.53l-.52,1.2c1.05.3,2.25.3,2.25-.68l1.43.6c-.08.38-.38.83-.6,1.05.6.45,1.27.45,1.42-.38,1.5,1.42,2.1,2.47,2.1,4.2,0,.9-.38,2.1-.98,2.62-2.02,1.8-4.12,3.9-6.9,6.3l-.83-.82ZM126.41,469.82l-2.17,3.97.38.9,2.17-4.28-.38-.6ZM141.71,461.5l-.45-.67c.83-.6,2.1-1.05,2.48-.3l-2.02.97ZM149.36,441.33l2.4.38.38-.53c-.82-.3-2.25-.15-2.77.15ZM160.16,485.5c-1.05-.3-1.8.45-.08.98,1.42-.23,3.15-.75,4.2-1.12v-.08c-.38,0-.52-.38-.75-.53l-3.37.75Z"/>
      <path class="cls-1" d="M204.26,467.57c.38.75-.15,1.58-.98,1.58l-.52-.98c-.6.15-1.05.45-.6,1.28-.82,0-2.17.67-2.17,1.5,0,1.12-1.27.75-2.17.97-.83.83-1.5,1.8-2.4,3l-.83-.75c-1.95,1.2-.9,2.03-2.92,3-1.2.6-2.62.53-3.97.83-.23.22.67.52.6.82l-1.35.45-2.1-1.27c-1.2.75-.3,2.47-1.8,3-1.8.6-3.23,1.12-5.32,1.8-1.27-1.28-2.77-.83-3.82,0-2.62-1.65-5.85-4.12-7.8-5.78-1.8-1.42-2.4-5.1-2.4-8.7,0-18.22,22.72-30,28.35-30,2.17,0,3.23,1.35,5.55,3.15,0,3.45,3.67,6.22,6.75,8.32,2.92,1.95,3.9,5.7,3.9,9.75,0,2.47-1.28,5.85-3.98,8.02ZM196.16,452.2c-.23-.68-.38-1.12-.67-.83-.3.3-.6.45-.83.45-.52,0-.82-.6-.9-.6-3.98,0-10.87,4.58-14.02,9.52-3.6,1.73-6.07,6-7.72,11.17,1.72-.15,3.97-.3,5.32-.83l13.5-5.62c1.5-.6,4.72-2.17,6.15-3.98l3.38-4.42-4.2-4.87ZM177.56,460.6c-1.12-.67-2.48.38-2.62,1.2,0,.45.23.82.9.9l1.73-2.1ZM177.86,481.45c-.3-.45-.83-.82-1.35-.82-.3.07-.6.15-.9.45l2.25.38ZM187.69,476.2c0,.22-.3.75-.15.9.3.23.9,0,1.27-.15,0-.53-.38-.75-1.12-.75ZM191.74,474.02c-1.35.68-1.88,1.05-1.8,1.88l2.17-1.12-.38-.75ZM193.84,472.22l-1.2,1.28.3.83,1.5-.9c-.23-.22-.38-1.05-.6-1.2Z"/>
      <path class="cls-1" d="M256.01,460.15c-.52.53-1.42.9-2.02.83l1.12-1.2c-.45-.15-1.2-.08-1.65.38-.45.45-1.65,1.42-3.15,2.62l1.35.3c-8.17,7.05-18.22,13.27-26.92,17.1l-.68,4.12c-1.42-.75-2.55,0-4.12,0-4.57,0-6.07-5.03-7.72-7.2.3-.83.52-1.8.6-2.85l1.88-.83c1.05-.52,1.8-.97,2.33-2.25,1.2-2.77,1.72-5.17,2.62-8.47l-.3-1.12c1.05-3.38,3.38-5.92,3.52-8.85.08-2.1-2.7-3.45-2.62-5.32.08-1.95,3.75-2.92,5.7-3.98l.75.53c3.52-3.83,3.75-11.55,7.72-11.55.68,0,3.38,4.42,3.75,5.4.3,1.2-.38,2.62-.67,4.2,2.55,0,5.32-.75,9.15-.22-.75,1.42,1.5,1.05,1.95,0,.75.6,2.85.38,4.5.9,6.9,2.1,7.27,7.88,7.65,11.1-1.27,1.95-3.08,4.8-4.73,6.38ZM225.04,478.22l-.15.75,2.1-1.12.38-.9-2.33,1.27ZM231.71,453.92l-.08,2.33c-.3.38-.9.6-1.35,1.12v.07c1.2-.97,1.05,2.4.38,2.4-.38-.08-.68-.23-.98-.45v.08c.3.45.45.97.52,1.58-.07,1.72-1.57,3.82-1.95,6.67,2.7-1.65,8.77-4.05,12.52-7.28.3.3.6.3,1.12.45l-.45-1.05.68-.45c.3.53.6.6.75.6.75,0,2.18-1.2,4.8-4.27,1.95.67,5.85-4.35,5.4-7.12-12.67,0-17.32,4.05-21.37,5.33ZM228.26,477.32l3.82-1.88c-.3-.15-.52-.83-.15-1.28v-.08c-1.12.6-3,2.33-3.67,3.15v.08ZM246.41,466.22c-1.35,0-2.55.75-4.05,1.72-1.65,1.05-4.27,2.55-6.67,4.05-.08.45-.3.97-.83,1.28-.52-.53-1.35-.3-2.17.45.45,0,1.2.23,1.72.53,4.27-2.62,8.55-5.77,12-7.95v-.07ZM248.51,463.97l-2.48,1.35c.45.3,1.05.45,1.58,0l1.57-1.12-.67-.22ZM255.41,458.13l-.6.67.98.22.6-.67-.97-.22Z"/>
      <path class="cls-1" d="M310.68,450.33c-1.5-.15-3.6.97-1.8,2.17.52.3-.07,1.42-.98,1.35l-1.05-.52c-.98,1.8-2.17,4.2-1.2,4.27l-.83,1.58c-1.42-.08-1.57,1.95-6.22,7.65l.6.75c1.87-2.4,3.67-4.95,5.17-7.42.52.67.37,1.35.15,1.8-10.5,19.35-25.95,21.6-30.3,21.6-1.05,0-.15-.75-1.12-.75-1.05,0,.15.75-.83.75-2.1,0-3.07-2.03-4.12-3.3l-.83.38c-3-1.8-4.35-5.25-4.35-8.78,0-3,.75-6.15,2.02-8.92,3.45-7.5,9.07-21,11.85-27.3.9-.75,1.65-1.05,2.32-1.05,1.65.08,3.98,6.15,4.57,7.72l1.05-.75v1.73c-2.18,3.97-5.33,10.5-7.27,14.77-.45-.75-.45-1.2-.08-2.03.75-.22-.3-1.05-.6-.6-1.8,2.62.07,3.97-.68,5.55-.3.67-.67,1.42-1.05,2.33-.67-.3-1.42.52-1.8,1.27.45.22.9,0,1.35-.3h.08c-.52,1.12-1.12,2.55-1.57,3.6-.3-.45-.38-1.05.15-2.17l-.45-.45c-.6,1.12-1.35,2.48-1.35,3.38,0,.53.3.83.98.9-.3.75-.6,1.5-.82,2.1,15.3,0,22.12-11.4,28.27-24.15.23-.67,1.43-.3,2.1-.75.67-.38.38-1.05-.82-.9,1.2-2.7,2.7-6.97,3-8.17.15-.67.6-.83,1.2-.83.45,0,.98.6,1.65,1.12.82.67,1.8,1.05,2.17,1.2.38.83.52,2.33.6,3.83.07,1.8.3,3.45,1.88,3.6l-1.05,3.75ZM279.04,480.92c-.98-1.73-3.67-1.12-2.92-.23.3.38.67.45,1.2.45s1.2-.15,1.73-.22ZM277.54,453.63c-.08.15-.23.45-.15.52l.98.6c.52-.75,1.8-3.45,1.05-4.2l-1.88,3.08ZM284.36,478.67c-1.27.45-3.07.22-2.92,1.95,1.5-.3,3-.9,4.35-1.58-.23-.53-.9-.53-1.42-.38ZM286.61,477.77l.15.75c1.57-.75,4.27-2.47,5.55-3.52-1.8-.08-3.07,1.35-5.7,2.77ZM297.93,467.5c-1.12,1.12-2.1,2.1-1.35,3.08l2.1-2.33-.75-.75Z"/>
      <path class="cls-1" d="M339.34,450.4c-2.17,1.58-3.82,3.38-4.72,4.2l-.45-.75c-.82,1.35-3.67,3.6-5.77,5.47-.08.38-.3,1.2-.53,1.58-1.35,1.42-8.77,9.97-8.77,13.65,0,.9.38,1.42,1.2,1.42,2.7,0,8.92-1.8,13.42-2.47,1.05-.15,1.88.3,2.25.75-3.6.75-8.7,1.65-9.52,3.15,1.42.9,3.9.3,5.02-.82,3.97-.75,9-1.8,12.82-2.33l1.2.3,1.8-.22.83.52-3.9.6c-.98.15-2.02.45-1.35,1.42l.52.75c-.67.3-9,2.77-13.95,4.35-.83.3-1.35,1.05-.9,1.58-1.58.38-3.98,1.05-5.7,1.05-.83,0-1.5-1.2-2.25-1.2-1.8,0-2.25-1.88-4.65-1.58-1.35-1.27-4.2-6.07-4.8-7.2-.38-.6-.52-1.72-.52-2.55v-2.03c1.2-1.05,1.27-2.62,1.27-4.2l.75.45c.52-.82-.08-1.88.3-2.7,1.58-3.15,4.58-8.17,5.55-8.17s-.45,1.12.6,1.12c.83,0,2.4-3.9,3.23-3.9h.9c-.23-.52-.3-1.42-.38-2.1h.52c1.95-4.72,16.27-13.2,18.9-13.2.9,0,2.7.83,3.83,1.42,1.05,2.47,3.15,4.42,2.62,7.5-3.08.75-6.75,2.25-9.38,4.12ZM317.36,458.35l-1.05,1.72.67.53.98-1.58-.6-.67ZM317.66,457.82l.75.45.6-1.05c-.6-.22-.97-.08-1.35.6ZM318.79,470.2l-.53,1.05.45.6.83-1.65h-.75ZM321.86,465.32l-.9,1.42c-.3.53-1.12,1.73-.75,2.4l2.32-3.45-.67-.38ZM325.01,461.05l-.45.75.52.45.6-.75-.67-.45ZM326.06,461.05c1.58-1.58,1.58-1.88,1.58-2.17-.75,0-1.43.75-2.25,1.72l.67.45ZM330.04,483.02l2.47-.83c.9.68.08,1.12-1.05,1.12-.45,0-.98-.08-1.42-.3ZM338.51,480.47c-1.42.83-2.85,1.65-4.12,1.65-.38,0-.75-.08-1.05-.23,1.42-.6,3.45-.97,5.17-1.5v.08ZM336.19,473.2c3-.53,6.15-1.12,8.4-1.28-.38,1.28-2.92,1.72-5.17,1.72-1.35,0-2.62-.15-3.23-.45ZM344.36,477.25l-.75-.9,2.02-.3.98.45-2.25.75Z"/>
      <path class="cls-1" d="M381.79,441.1c4.95-1.05,10.5-2.25,13.95-2.7,3.22.83,5.85,2.17,6.83,4.88-1.28,1.12-.6,3.07.07,4.2-.38.23-.75.38-1.2.53l-.15-.45c-.45-.22-.83-.3-1.05-.3-.3,0-.53.22-.53.53,0,.22.08.45.15.6-4.5.9-11.1.3-17.32,3h-1.05v-.83c-.68-.08-1.2.3-1.65.9-2.55.3-3.38,1.27-4.95,6-.23.68-1.12,1.58-1.58,1.95l.67.38c-.38,1.58-1.5,4.58-2.25,4.5-.83-.08-.08-1.58-.53-1.5-.82.15-.9,1.8-1.27,3,.38.97.45,1.58.45,2.17-.38.97-.75,2.62-1.28,2.62-.75,0-.3-1.42-.6-2.03-.67,1.42-1.2,2.78-1.73,4.05l.6.38c.38-.67.75-.9,1.42-.75-1.42,3.9-2.7,7.8-3.52,11.17-1.8.15-3.6-.08-4.88-.38l.3-.83c-1.95-.67-1.8-3.22-2.1-6.15-.3-.38-.6-1.05-.6-1.58,0-1.88,4.28-12.97,8.03-21.52h-5.85c-3.3,0-3.52,1.05-5.92.45-1.12-1.72-2.47-5.02-2.47-7.27,0-.9.3-1.72,1.05-2.47,2.92.3,9.9.6,14.47-.3,7.58-1.58,4.27-8.7,11.25-8.7l3.22,6.45ZM372.34,460.6l-.75,1.35.45.53.6-1.35-.3-.52Z"/>
      <path class="cls-1" d="M419.59,448h-.82c-2.03,2.85-3.23,8.1-6.67,9.97l.3.9-2.92,1.65c-2.92,4.2-4.2,9.38-5.85,13.65-.23.6-1.2,1.8-.23,2.1.23.08.75-1.5.83-1.72,1.72-3.9,3-9.75,5.7-12.82,1.05-.38.3.52.15.75-2.62,4.42-3.9,9.52-6.07,14.77-1.5,3.52-2.03,6.75-1.65,8.25-1.35-.45-2.55-.97-3.75-1.65v-2.4c-.52.45-.75.98-.83,1.8-1.72-1.27-3.15-3-4.12-5.62,0-13.5,13.95-31.95,19.35-41.85.45-.6,1.42-1.05,2.25-1.05.75,0,1.5.3,2.33.52v1.8c1.5.6,2.7,2.32,2.7,3.97,0,2.02-.3,4.72-.68,6.97ZM402.04,477.92l-.83,2.02c-.08.23.15.98.6.23l1.05-2.62c-1.05-1.05-.75.15-.83.38Z"/>
      <path class="cls-1" d="M461.21,467.57c.38.75-.15,1.58-.98,1.58l-.52-.98c-.6.15-1.05.45-.6,1.28-.82,0-2.17.67-2.17,1.5,0,1.12-1.27.75-2.17.97-.83.83-1.5,1.8-2.4,3l-.83-.75c-1.95,1.2-.9,2.03-2.92,3-1.2.6-2.62.53-3.97.83-.23.22.67.52.6.82l-1.35.45-2.1-1.27c-1.2.75-.3,2.47-1.8,3-1.8.6-3.22,1.12-5.32,1.8-1.28-1.28-2.78-.83-3.83,0-2.62-1.65-5.85-4.12-7.8-5.78-1.8-1.42-2.4-5.1-2.4-8.7,0-18.22,22.72-30,28.35-30,2.17,0,3.22,1.35,5.55,3.15,0,3.45,3.67,6.22,6.75,8.32,2.92,1.95,3.9,5.7,3.9,9.75,0,2.47-1.28,5.85-3.97,8.02ZM453.11,452.2c-.23-.68-.38-1.12-.67-.83-.3.3-.6.45-.83.45-.53,0-.83-.6-.9-.6-3.97,0-10.87,4.58-14.02,9.52-3.6,1.73-6.07,6-7.72,11.17,1.72-.15,3.97-.3,5.33-.83l13.5-5.62c1.5-.6,4.72-2.17,6.15-3.98l3.38-4.42-4.2-4.87ZM434.51,460.6c-1.12-.67-2.47.38-2.62,1.2,0,.45.23.82.9.9l1.72-2.1ZM434.81,481.45c-.3-.45-.82-.82-1.35-.82-.3.07-.6.15-.9.45l2.25.38ZM444.64,476.2c0,.22-.3.75-.15.9.3.23.9,0,1.28-.15,0-.53-.38-.75-1.12-.75ZM448.68,474.02c-1.35.68-1.88,1.05-1.8,1.88l2.17-1.12-.38-.75ZM450.78,472.22l-1.2,1.28.3.83,1.5-.9c-.22-.22-.38-1.05-.6-1.2Z"/>
      <path class="cls-1" d="M518.21,439.9c.83-.53,2.32-.9,3.9-.97,2.7-.08,4.8.3,6.08,1.2l-1.5,1.05.15.3c.53,0,1.95-.45,2.4-.75l2.1,2.25c-3.9,1.8-10.87,6.97-14.7,12.22-.45.6-.75-.3-1.2,0-.15,2.7-1.72,4.12-3.52,6.98-.38.67-.23,1.65-.67,2.7,0,.45-1.12.9-1.35,1.58-1.88,5.77-4.42,11.77-6.82,17.92l-3.38-1.57-.45,1.05c-4.8-1.28-5.25-3.15-5.92-8.17-.22-1.95.38-5.33-.15-6.97-1.8-5.25-.08-7.5-.53-11.32l-.38-2.93c-2.33.75-4.95,3-6.9,6.53l.22,1.2c-3.75,7.05-7.12,16.8-10.5,21.3h-2.1c-2.17,0-3.38-5.03-4.27-5.47l-.45-3.3c-.38-2.33.3-3.15.83-4.58,5.32-12.9,13.87-20.7,19.8-26.77,2.25.82,8.4,4.65,9.45,7.42.9,2.25,1.8,6.98,2.55,10.05,5.1-8.85,12.6-19.87,14.25-20.47l1.58-.23c-4.65,4.58-7.95,9.97-9.75,12.6-.67,1.12-.97,1.58-.83,1.65l.45.3c2.17-3.38,7.2-10.5,11.62-14.77ZM488.51,445.15l-1.65,1.72c.9.75,1.72-.75,2.25-1.28l-.6-.45ZM510.86,469l-.68-.45c.08-1.05.15-2.47,1.05-2.1l-.38,2.55ZM516.78,451.6c-.6.9-1.8,2.48-1.05,2.85l1.58-2.4c.15-.22-.38-.67-.52-.45ZM516.41,443.65l1.27-1.65-.6-.3c-.38.3-.83.83-1.28,1.58.08.15.3.45.6.38ZM518.73,448.97l-1.5,1.95c.45-.08.6.08.68.38l1.35-1.95c.15-.15-.15-.82-.53-.38ZM524.43,442.75l.15.67c.75-.52,1.43-.6,1.28-1.72l-1.42,1.05Z"/>
      <path class="cls-1" d="M558.93,438.78c2.7.67,4.05,3.08,3.83,5.92.38.3.52.67.52,1.05,0,1.58-2.55,3.67-5.4,4.27-1.58-2.02.9-2.1.15-2.92-7.57,0-11.4,1.5-17.92,6.15v1.12l3.15,2.25c3.23,2.25,6.38,3.3,8.62,5.77l.83-.53c2.17,2.33,3.45,5.17,3.3,7.12l-.45,6-1.28-.3c-2.17,3-6.52,5.7-10.95,7.65-2.33-.97-3.6-.6-3.52,1.42-3.6,1.35-6.83,2.03-8.17,2.03-1.05,0-2.85-1.2-4.65-2.92-3-.6-3.67-2.4-3.3-3.75-.97-1.35-1.65-2.62-1.65-3.45,0-1.88,1.27-3,2.47-3.9,1.28,1.05,3.22,3.67,4.58,3.67,3.52,0,10.5-2.03,15.3-6.23v-.75c-1.88-1.8-3.38-5.1-4.72-4.2-2.02-2.7-2.92-3.83-4.27-2.85-1.05-.9-3.08-2.7-3.45-4.8-.45-2.4-1.35-5.17-1.28-6.75.45-6.15,12.6-12.3,22.12-12.3,1.87,0,4.35.08,6.22.3l-.08.9ZM538.91,482.42l-2.62,1.12.38.52,2.25-.75v-.9ZM545.66,448.75c-2.7.83-5.47,1.95-5.55,3.15l5.55-3.07v-.08ZM560.28,449.95l1.88-1.28c0,.9-.22.97-1.2,1.8l-.67-.52Z"/>
    </g>
  </g>
  <g id="BEAR">
    <path class="cls-1" d="M466.54,256.11c-.28-.44-3.04-5.06-5.55-15.5-.07-.3-.02-.62.15-.87,1.22-1.85,6.24-10.27,5.31-22.14-.09-1.19-.45-2.35-1.06-3.38-1.66-2.79-4.81-10.28.55-20.94.18-.36.16-.79-.06-1.12-1.12-1.64-5.19-5.92-15.07-1.06-.37.18-.81.16-1.14-.09-2.63-1.91-14.34-10.12-22.09-10.77-20.9-1.75-3.41-4.02-34.67-10.79-.57-.12-1.14.22-1.3.78-.48,1.66-.97,2.88-1.22,3.45-.11.24-.11.52-.03.77,6.66,20.79-13.09,25.19-18.23,19.84-2.84-2.96.22-11.12-13.94-8.16-3.7.77-9.08-5.86-12.48-11.23-2.01-3.31-3.37-2.12-4.19-.36-.83,1.79-.88,3.85-.22,5.71,3.47,9.83,11.01,17.83,14.85,21.45,2.17,2.05,3.91,4.78,3.89,7.76-.05,6.1-7.41,4.94-11.82,3.7-2-.56-3.86-1.55-5.42-2.92-15.38-13.57-21.81-31.75-24-39.63-.27-.98-1.62-1.11-2.05-.19-3.87,8.28-15.72,11.41-18.97,12.13-.49.11-.85.55-.86,1.05-.22,8.29,1.28,13.49-4.42,18.85-1.94,1.74-5.01,1.25-6.32-1.01-6.63-14.06-19.37-26.55-11.97-34.68.29-.32.39-.76.24-1.16-.65-1.71-1.22-3.38-1.73-5.03-.16-.51-.66-.84-1.2-.77-67.24,8.4-113.51,52.5-104.94,183.06,0,.02,0,.05,0,.07v7.78c0,6.73,5.17,12.32,11.88,12.87,2.44.2,5.21.35,8.24.4.06,0,.11,0,.17.02.92.18,1.94.24,3.1.14,9.8-.87,26.58,1.42,33.97-.91,1.6-.51,3.23-2.12,2.6-3.59-3.43-8.09-3.43-13.78-14.65-13.91-5.41-.06-4.54-.1-7.59-6.9-1.62-3.61-.69-7.86,2.16-10.59.05-.05.1-.09.15-.12l21.94-15.56c.08-.06.16-.13.22-.21.93-1.15,8.47-10.53,8.63-10.67,9.56-8.67,30.4-7.58,49.37-14.53.04-.01.07-.03.1-.04.63-.3,7.86-3.69,22.36-9.36.63-.25,1.27.34,1.08.99,0,0-11.09,9.57-19.74,12.27-8.79,2.75-29.51,6.14-33.74,7.93-3.12,1.32-4.13,1.85-11.74,8.42-.3.26-.44.66-.37,1.04,1.13,6.28,14.85,22.65,15.78,30.58,0,.05,0,.09,0,.14v6.6c0,5.74,4.41,10.51,10.13,10.98,2.08.17,4.44.3,7.02.34.06,0,.11,0,.17.02.79.15,1.65.2,2.63.11,8.36-.74,20.97,1.21,27.27-.78,1.68-.53,2.6-2.31,2.07-3.99-1.11-3.52-4.89-11.47-9.48-10.66-4.54.8-6.01-.38-8.61-6.17-1.39-3.1.18-28.46,2.66-30.79l9.89-13.65c.46-.42,1.18-.38,1.58.09,10.07,11.82,24.59,26.49,31.67,49.14,3.17,10.16,6.53,10.94,13.88,10.28,1.91-.17,4.02-.21,6.22-.19.72,0,1.26-.68,1.08-1.38-6.15-23.87-23.4-38.12-31.68-47.86-4.39-5.16-6.22-17.88-6.21-19.35,0-.02,0-.05,0-.07,0-1.29,1.84-1.54,2.17-.29,4.61,17.7,19.35,30.58,20.46,31.53.05.04.09.08.13.12,14.47,14.38,19.78,39.1,19.76,39.93-.24,11.28,6.92,11.59,14.7,10.9,9.8-.87,22.24,1.28,29.63-1.05,1.96-.62,3.05-2.71,2.43-4.67-1.3-4.13-5.66-12.3-11.11-12.49-13.38-.47-11.47-7.16-10.78-10.59,0-.02,0-.03,0-.05,2.05-10.17-.22-23.81,2.53-32.6,1.92-6.16,3.09-11.25,4.9-17.96,1.93-7.16,1.34-18.21,8.32-20.74,8.48-3.07,18.01-3.68,29.67,4.81,1.75,1.27,3.67,2.28,5.75,2.89,5.82,1.7,17.13,4.34,17.55-.6.04-.49.43-.88.91-.99,3.58-.8,15.9-4.34,8.78-13.8-.02-.02-.03-.04-.05-.07Z"/>
  </g>
</svg>